<svg width="571" height="556" viewBox="0 0 571 556" fill="none" xmlns="http://www.w3.org/2000/svg">
<path d="M151.995 0C152.493 0.115587 152.996 0.361289 153.463 0.309457C162.576 -0.651676 173.311 5.7937 176.389 16.6142C177.691 21.1955 178.976 25.7668 180.224 30.3626C184.104 44.7717 187.777 59.2217 191.902 73.5653C195.099 84.7197 189.626 95.0637 182.47 99.6262C175.24 104.238 167.769 104.146 160.292 100.397C154.277 97.3697 150.383 92.4142 148.623 85.9076C143.499 66.9745 138.389 48.0378 133.375 29.0757C130.709 18.9786 133.82 10.2031 141.93 4.41951C143.057 3.62071 144.39 3.10308 145.6 2.39892C145.776 2.29339 145.803 1.90578 145.894 1.64738C147.933 1.10159 149.959 0.559439 151.999 0.0136484L151.995 0Z" fill="#F4F4F4"/>
<path d="M489.384 406.624C477.242 409.873 465.097 413.167 452.944 416.375C436.269 420.764 424.508 430.918 417.905 446.831C411.375 462.578 405.258 478.506 398.858 494.306C395.081 503.64 391.425 513.044 387.187 522.18C380.083 537.525 368.219 547.677 352.253 553.135C328.662 561.188 295.841 552.651 281.12 522.609C279.407 519.103 278.161 515.326 276.915 511.607C274.493 504.371 272.23 497.077 269.885 489.805C265.629 476.55 261.404 463.301 257.135 450.049C252.225 434.789 247.273 419.54 242.377 404.277C237.57 389.296 232.829 374.284 228.022 359.303C223.99 346.72 219.89 334.154 215.862 321.584C211.935 309.337 208.049 297.08 204.136 284.83C200.146 272.352 195.903 259.956 192.199 247.402C184.154 220.079 190.567 196.508 211.655 177.553C226.532 164.18 244.411 160.098 264.052 163.122C269.238 163.928 274.17 165.476 278.941 167.666C292.838 174.055 306.732 180.431 320.636 186.789C325.637 189.078 330.697 191.264 335.702 193.568C354.477 202.221 373.222 210.926 391.997 219.579C413.548 229.508 435.116 239.389 456.687 249.284C483.527 261.601 510.486 273.652 537.145 286.325C555.966 295.258 567.131 310.527 570.35 331.213C574.275 356.435 560.097 382.406 536.981 392.717C533.05 394.471 528.936 395.922 524.787 397.077C513.021 400.372 501.179 403.438 489.377 406.596L489.384 406.624ZM277.175 365.591C277.175 365.591 277.175 365.591 277.161 365.595C278.952 371.128 280.756 376.657 282.519 382.198C286.643 395.123 290.736 408.042 294.887 420.959C298.828 433.26 302.824 445.547 306.779 457.844C311.408 472.272 315.969 486.718 320.662 501.115C323.58 510.033 333.397 513.871 341.411 509.357C344.945 507.373 346.713 504.076 348.164 500.47C357.34 477.637 366.582 454.831 375.74 431.988C380.339 420.503 386.586 410.054 394.971 400.95C407.749 387.086 423.373 377.858 441.472 372.912C465.615 366.32 489.817 359.946 514.002 353.459C515.185 353.143 516.378 352.809 517.522 352.4C523.532 350.251 527.133 343.845 526.083 337.544C525.103 331.662 521.493 328.254 516.282 325.889C494.623 316.048 473.054 306.05 451.435 296.139C431.527 287.014 411.587 277.926 391.666 268.804C376.48 261.853 361.319 254.88 346.157 247.908C329.118 240.077 312.093 232.243 295.058 224.426C284.306 219.492 273.523 214.61 262.796 209.61C257.085 206.955 251.434 206.478 245.488 208.815C237.738 211.869 232.233 220.788 233.818 228.98C234.774 233.844 236.536 238.565 238.033 243.329C242.173 256.425 246.34 269.514 250.539 282.609C255.24 297.252 259.995 311.88 264.7 326.537C268.894 339.56 273.047 352.594 277.213 365.625L277.175 365.591Z" fill="#F4F4F4"/>
<path d="M0.902565 143.796C-2.3162 131.799 3.34421 120.469 13.5854 116.163C19.2161 113.793 24.7927 114.1 30.5581 115.6C51.8898 121.126 73.2502 126.542 94.5881 132.037C103.915 134.427 110.576 142.197 111.63 151.775C112.609 160.802 107.537 169.926 99.1625 174.128C94.4742 176.479 89.5535 176.933 84.5062 175.665C71.0659 172.284 57.6554 168.851 44.2214 165.439C34.8809 163.053 25.5141 160.732 16.206 158.249C8.03062 156.078 3.09695 150.508 0.906225 143.81L0.902565 143.796Z" fill="#F4F4F4"/>
<path d="M271.923 82.9005C270.363 75.4039 272.592 67.742 279.331 61.6817C295.489 47.1621 311.734 32.7507 327.961 18.3294C336.376 10.8553 347.419 9.91883 356.427 15.8464C367.69 23.2772 369.776 40.1264 360.213 49.6194C353.599 56.2019 346.425 62.2176 339.457 68.4561C331.232 75.821 323.027 83.2096 314.694 90.4425C311.277 93.4049 307.79 96.4882 303.874 98.6771C295.965 103.09 288.087 101.922 280.775 96.8276C276.385 93.7747 273.616 89.4835 271.906 82.8905L271.923 82.9005Z" fill="#F4F4F4"/>
<path d="M22.273 306.771C19.6715 297.564 22.7811 290.251 29.4016 284.237C40.9927 273.719 52.7584 263.417 64.4159 252.984C69.2463 248.663 73.9549 244.214 78.8272 239.94C90.1693 230.015 108.04 233.235 114.659 248.886C117.606 255.85 116.501 266.02 109.161 273.046C104.185 277.8 98.9095 282.255 93.7559 286.837C82.0095 297.266 70.2385 307.657 58.4958 318.098C48.1217 327.34 32.59 324.855 25.2283 313.821C23.8381 311.735 23.214 309.137 22.2285 306.768L22.273 306.771Z" fill="#F4F4F4"/>
</svg>
